<svg width="1392" height="91" viewBox="0 0 1392 91" fill="none" xmlns="http://www.w3.org/2000/svg">
<g filter="url(#filter0_b_3_290)">
<rect width="1392" height="91" rx="6" fill="#6CB9AB" fill-opacity="0.7"/>
<path d="M117.837 78.8568V51.9902H136.993V57.8673H125.053V62.485H136.006V68.362H125.053V72.9797H136.941V78.8568H117.837Z" fill="white"/>
<path d="M83.7892 51.9902H92.77L98.9475 67.2076H99.259L105.437 51.9902H114.417V78.8568H107.357V63.3246H107.15L101.232 78.6469H96.9749L91.0569 63.2196H90.8492V78.8568H83.7892V51.9902Z" fill="white"/>
<path d="M80.3694 51.9902V78.8568H73.1536V51.9902H80.3694Z" fill="white"/>
<path d="M47.337 57.8673V51.9902H70.438V57.8673H62.4435V78.8568H55.3315V57.8673H47.337Z" fill="white"/>
<path d="M93.6206 46.8738V24.7584H103.064C104.688 24.7584 106.109 25.0824 107.327 25.7303C108.545 26.3782 109.492 27.2889 110.169 28.4623C110.845 29.6358 111.183 31.0072 111.183 32.5766C111.183 34.1604 110.834 35.5318 110.136 36.6908C109.446 37.8499 108.474 38.7425 107.22 39.3689C105.974 39.9952 104.517 40.3083 102.851 40.3083H97.2101V35.6434H101.654C102.352 35.6434 102.947 35.521 103.438 35.2762C103.937 35.0242 104.318 34.6679 104.581 34.2071C104.852 33.7464 104.987 33.2029 104.987 32.5766C104.987 31.9431 104.852 31.4031 104.581 30.9568C104.318 30.5032 103.937 30.1577 103.438 29.9201C102.947 29.6754 102.352 29.553 101.654 29.553H99.5603V46.8738H93.6206Z" fill="#64099B"/>
<path d="M84.1299 24.7584H90.0696V38.9261C90.0696 40.6107 89.6708 42.0685 88.8731 43.2995C88.0826 44.5234 86.9787 45.47 85.5614 46.1395C84.1441 46.8019 82.499 47.133 80.6259 47.133C78.7386 47.133 77.0863 46.8019 75.669 46.1395C74.2517 45.47 73.1478 44.5234 72.3573 43.2995C71.5738 42.0685 71.1821 40.6107 71.1821 38.9261V24.7584H77.1219V38.4078C77.1219 39.0917 77.2714 39.7036 77.5706 40.2435C77.8697 40.7763 78.2828 41.1938 78.8098 41.4962C79.3439 41.7985 79.9493 41.9497 80.6259 41.9497C81.3096 41.9497 81.915 41.7985 82.442 41.4962C82.969 41.1938 83.3821 40.7763 83.6812 40.2435C83.9803 39.7036 84.1299 39.0917 84.1299 38.4078V24.7584Z" fill="#64099B"/>
<path d="M68.4874 33.0517H62.4622C62.4195 32.5478 62.3055 32.0906 62.1203 31.6803C61.9423 31.2699 61.693 30.9172 61.3725 30.622C61.0592 30.3197 60.6781 30.0893 60.2295 29.9309C59.7808 29.7653 59.2715 29.6825 58.7018 29.6825C57.7047 29.6825 56.8608 29.9273 56.1699 30.4169C55.4862 30.9064 54.9663 31.6083 54.6102 32.5226C54.2612 33.4368 54.0867 34.5347 54.0867 35.8161C54.0867 37.1695 54.2648 38.3034 54.6209 39.2177C54.9841 40.1247 55.5076 40.8086 56.1913 41.2694C56.875 41.7229 57.6976 41.9497 58.6591 41.9497C59.2075 41.9497 59.6989 41.8813 60.1333 41.7445C60.5678 41.6005 60.9452 41.3954 61.2657 41.129C61.5862 40.8626 61.8461 40.5423 62.0456 40.1679C62.2521 39.7864 62.391 39.358 62.4622 38.8829L68.4874 38.9261C68.4162 39.862 68.1562 40.8158 67.7075 41.7877C67.2589 42.7524 66.6214 43.6451 65.7953 44.4658C64.9763 45.2792 63.9614 45.9344 62.7506 46.4311C61.5399 46.9278 60.1333 47.1762 58.5309 47.1762C56.5225 47.1762 54.7206 46.7407 53.1253 45.8696C51.5371 44.9985 50.28 43.7171 49.3542 42.0253C48.4354 40.3335 47.9761 38.2638 47.9761 35.8161C47.9761 33.3541 48.4461 31.2807 49.3862 29.5962C50.3263 27.9044 51.594 26.6266 53.1894 25.7627C54.7847 24.8916 56.5652 24.4561 58.5309 24.4561C59.9125 24.4561 61.1838 24.6468 62.3447 25.0284C63.5056 25.4099 64.524 25.9679 65.4 26.7022C66.276 27.4293 66.9811 28.3255 67.5153 29.391C68.0494 30.4564 68.3735 31.6767 68.4874 33.0517Z" fill="#64099B"/>
<g clip-path="url(#clip0_3_290)">
<path d="M142.933 34.2674V28.9832H136.664V24.6853H115.766V43.8495C115.766 46.181 117.64 48.0769 119.945 48.0769H132.484C134.789 48.0769 136.664 46.181 136.664 43.8495V41.629C140.199 41.1107 142.933 37.9843 142.933 34.2674ZM140.843 34.2674C140.843 36.8191 139.045 39.0242 136.664 39.5152V31.0969H140.843V34.2674ZM120.931 13.5708L119.533 12C116.604 14.6679 118.18 16.7145 119.121 17.9365C120.039 19.1306 120.383 19.5775 119.206 20.7676L120.684 22.262C123.166 19.752 121.666 17.8024 120.77 16.6382C119.808 15.3893 119.448 14.9218 120.931 13.5708ZM126.155 13.5708L124.757 12C121.829 14.6679 123.404 16.7145 124.345 17.9365C125.264 19.1306 125.607 19.5775 124.431 20.7676L125.908 22.262C128.39 19.752 126.89 17.8024 125.994 16.6382C125.033 15.3893 124.673 14.9218 126.155 13.5708ZM131.38 13.5708L129.982 12C127.053 14.6679 128.629 16.7145 129.57 17.9365C130.488 19.1306 130.832 19.5775 129.655 20.7676L131.133 22.262C133.615 19.752 132.115 17.8024 131.219 16.6382C130.257 15.3893 129.897 14.9218 131.38 13.5708Z" fill="#64099B"/>
</g>
<path d="M481.403 38.4545H483.165V43.3125C483.165 44.0322 483.29 44.598 483.541 45.0099C483.792 45.4171 484.147 45.706 484.607 45.8764C485.066 46.0421 485.608 46.125 486.233 46.125C486.626 46.125 487.007 46.1108 487.376 46.0824C487.746 46.0492 488.106 46.0043 488.456 45.9474C488.811 45.8906 489.157 45.822 489.493 45.7415C489.834 45.661 490.168 45.571 490.494 45.4716V47.0625C490.177 47.1619 489.862 47.2519 489.55 47.3324C489.242 47.4129 488.92 47.4815 488.584 47.5384C488.252 47.5952 487.895 47.6402 487.511 47.6733C487.128 47.7017 486.702 47.7159 486.233 47.7159C485.229 47.7159 484.365 47.5715 483.641 47.2827C482.921 46.9938 482.367 46.5275 481.979 45.8835C481.595 45.2396 481.403 44.3826 481.403 43.3125V38.4545ZM490.267 38.4545H492.028V53H490.267V38.4545ZM498.541 53.2557C497.85 53.2557 497.223 53.1255 496.659 52.8651C496.096 52.5999 495.648 52.2188 495.317 51.7216C494.985 51.2197 494.82 50.6136 494.82 49.9034C494.82 49.2784 494.943 48.7718 495.189 48.3835C495.435 47.9905 495.764 47.6828 496.176 47.4602C496.588 47.2377 497.043 47.072 497.54 46.9631C498.042 46.8494 498.546 46.7595 499.053 46.6932C499.715 46.608 500.253 46.544 500.665 46.5014C501.081 46.4541 501.384 46.3759 501.574 46.267C501.768 46.1581 501.865 45.9687 501.865 45.6989V45.642C501.865 44.9413 501.673 44.3968 501.29 44.0085C500.911 43.6203 500.336 43.4261 499.564 43.4261C498.764 43.4261 498.136 43.6013 497.682 43.9517C497.227 44.3021 496.908 44.6761 496.723 45.0739L495.132 44.5057C495.416 43.8428 495.795 43.3267 496.268 42.9574C496.747 42.5833 497.268 42.3229 497.831 42.1761C498.399 42.0246 498.958 41.9489 499.507 41.9489C499.857 41.9489 500.26 41.9915 500.714 42.0767C501.174 42.1572 501.616 42.3253 502.043 42.581C502.473 42.8366 502.831 43.2225 503.115 43.7386C503.399 44.2547 503.541 44.946 503.541 45.8125V53H501.865V51.5227H501.78C501.666 51.7595 501.477 52.0128 501.212 52.2827C500.946 52.5526 500.594 52.7822 500.153 52.9716C499.713 53.161 499.176 53.2557 498.541 53.2557ZM498.797 51.75C499.46 51.75 500.018 51.6198 500.473 51.3594C500.932 51.099 501.278 50.7628 501.51 50.3509C501.747 49.9389 501.865 49.5057 501.865 49.0511V47.517C501.794 47.6023 501.638 47.6804 501.396 47.7514C501.16 47.8177 500.885 47.8769 500.572 47.929C500.265 47.9763 499.964 48.0189 499.67 48.0568C499.382 48.09 499.147 48.1184 498.967 48.142C498.532 48.1989 498.125 48.2912 497.746 48.419C497.372 48.5421 497.069 48.7292 496.837 48.9801C496.609 49.2263 496.496 49.5625 496.496 49.9886C496.496 50.571 496.711 51.0114 497.142 51.3097C497.578 51.6032 498.129 51.75 498.797 51.75ZM508.277 50.5284L513.532 42.0909H515.464V53H513.788V44.5625L508.561 53H506.6V42.0909H508.277V50.5284ZM512.424 38.4545H513.987C513.987 39.2216 513.722 39.849 513.191 40.3366C512.661 40.8243 511.941 41.0682 511.032 41.0682C510.137 41.0682 509.425 40.8243 508.895 40.3366C508.369 39.849 508.106 39.2216 508.106 38.4545H509.669C509.669 38.8239 509.77 39.1482 509.974 39.4276C510.182 39.7069 510.535 39.8466 511.032 39.8466C511.529 39.8466 511.885 39.7069 512.098 39.4276C512.315 39.1482 512.424 38.8239 512.424 38.4545Z" fill="#64099B"/>
<path d="M577.812 53L572.812 46.3239H571.023V53H569.261V38.4545H571.023V44.7614H571.79L577.614 38.4545H579.716L573.835 44.8466L579.915 53H577.812ZM585.595 53.2273C584.61 53.2273 583.746 52.9929 583.002 52.5241C582.264 52.0554 581.686 51.3996 581.27 50.5568C580.858 49.714 580.652 48.7292 580.652 47.6023C580.652 46.4659 580.858 45.474 581.27 44.6264C581.686 43.7789 582.264 43.1207 583.002 42.652C583.746 42.1832 584.61 41.9489 585.595 41.9489C586.58 41.9489 587.441 42.1832 588.18 42.652C588.923 43.1207 589.501 43.7789 589.913 44.6264C590.33 45.474 590.538 46.4659 590.538 47.6023C590.538 48.7292 590.33 49.714 589.913 50.5568C589.501 51.3996 588.923 52.0554 588.18 52.5241C587.441 52.9929 586.58 53.2273 585.595 53.2273ZM585.595 51.7216C586.343 51.7216 586.958 51.5298 587.441 51.1463C587.924 50.7628 588.282 50.2585 588.514 49.6335C588.746 49.0085 588.862 48.3314 588.862 47.6023C588.862 46.8731 588.746 46.1937 588.514 45.5639C588.282 44.9342 587.924 44.4252 587.441 44.0369C586.958 43.6487 586.343 43.4545 585.595 43.4545C584.847 43.4545 584.231 43.6487 583.748 44.0369C583.265 44.4252 582.908 44.9342 582.676 45.5639C582.444 46.1937 582.328 46.8731 582.328 47.6023C582.328 48.3314 582.444 49.0085 582.676 49.6335C582.908 50.2585 583.265 50.7628 583.748 51.1463C584.231 51.5298 584.847 51.7216 585.595 51.7216ZM597.528 56.7216V38.4545H599.205V56.7216H597.528ZM597.528 53.2273C596.79 53.2273 596.117 53.0947 595.511 52.8295C594.905 52.5597 594.384 52.1785 593.949 51.6861C593.513 51.1889 593.177 50.5947 592.94 49.9034C592.704 49.2121 592.585 48.4451 592.585 47.6023C592.585 46.75 592.704 45.9782 592.94 45.2869C593.177 44.5909 593.513 43.9943 593.949 43.4972C594.384 43 594.905 42.6188 595.511 42.3537C596.117 42.0838 596.79 41.9489 597.528 41.9489H598.04V53.2273H597.528ZM597.528 51.7216H597.812V43.4545H597.528C596.97 43.4545 596.484 43.5682 596.072 43.7955C595.661 44.018 595.32 44.3234 595.05 44.7116C594.785 45.0952 594.586 45.5355 594.453 46.0327C594.325 46.5298 594.261 47.053 594.261 47.6023C594.261 48.3314 594.377 49.0085 594.609 49.6335C594.841 50.2585 595.199 50.7628 595.682 51.1463C596.165 51.5298 596.78 51.7216 597.528 51.7216ZM599.205 53.2273H598.693V41.9489H599.205C599.943 41.9489 600.616 42.0838 601.222 42.3537C601.828 42.6188 602.348 43 602.784 43.4972C603.22 43.9943 603.556 44.5909 603.793 45.2869C604.029 45.9782 604.148 46.75 604.148 47.6023C604.148 48.4451 604.029 49.2121 603.793 49.9034C603.556 50.5947 603.22 51.1889 602.784 51.6861C602.348 52.1785 601.828 52.5597 601.222 52.8295C600.616 53.0947 599.943 53.2273 599.205 53.2273ZM599.205 51.7216C599.768 51.7216 600.253 51.6127 600.661 51.3949C601.072 51.1723 601.411 50.8693 601.676 50.4858C601.946 50.0975 602.145 49.6572 602.273 49.1648C602.405 48.6676 602.472 48.1468 602.472 47.6023C602.472 46.8731 602.356 46.1937 602.124 45.5639C601.892 44.9342 601.534 44.4252 601.051 44.0369C600.568 43.6487 599.953 43.4545 599.205 43.4545H598.92V51.7216H599.205ZM611.284 53.2273C610.233 53.2273 609.326 52.9953 608.564 52.5312C607.806 52.0625 607.221 51.4091 606.809 50.571C606.402 49.7282 606.199 48.7481 606.199 47.6307C606.199 46.5133 606.402 45.5284 606.809 44.6761C607.221 43.8191 607.794 43.1515 608.528 42.6733C609.267 42.1903 610.128 41.9489 611.113 41.9489C611.681 41.9489 612.243 42.0436 612.797 42.233C613.35 42.4223 613.855 42.7301 614.309 43.1562C614.764 43.5777 615.126 44.1364 615.396 44.8324C615.666 45.5284 615.801 46.3854 615.801 47.4034V48.1136H607.392V46.6648H614.096C614.096 46.0492 613.973 45.5 613.727 45.017C613.485 44.5341 613.14 44.1529 612.69 43.8736C612.245 43.5942 611.719 43.4545 611.113 43.4545C610.446 43.4545 609.868 43.6203 609.38 43.9517C608.897 44.2784 608.526 44.7045 608.265 45.2301C608.005 45.7557 607.875 46.3191 607.875 46.9205V47.8864C607.875 48.7102 608.017 49.4086 608.301 49.9815C608.59 50.5497 608.99 50.983 609.501 51.2812C610.012 51.5748 610.607 51.7216 611.284 51.7216C611.724 51.7216 612.122 51.66 612.477 51.5369C612.837 51.4091 613.147 51.2197 613.407 50.9688C613.668 50.7131 613.869 50.3958 614.011 50.017L615.63 50.4716C615.46 51.0208 615.173 51.5038 614.771 51.9205C614.368 52.3324 613.871 52.6544 613.279 52.8864C612.688 53.1136 612.022 53.2273 611.284 53.2273Z" fill="white"/>
<path d="M669.403 38.4545H671.165V43.3125C671.165 44.0322 671.29 44.598 671.541 45.0099C671.792 45.4171 672.147 45.706 672.607 45.8764C673.066 46.0421 673.608 46.125 674.233 46.125C674.626 46.125 675.007 46.1108 675.376 46.0824C675.746 46.0492 676.106 46.0043 676.456 45.9474C676.811 45.8906 677.157 45.822 677.493 45.7415C677.834 45.661 678.168 45.571 678.494 45.4716V47.0625C678.177 47.1619 677.862 47.2519 677.55 47.3324C677.242 47.4129 676.92 47.4815 676.584 47.5384C676.252 47.5952 675.895 47.6402 675.511 47.6733C675.128 47.7017 674.702 47.7159 674.233 47.7159C673.229 47.7159 672.365 47.5715 671.641 47.2827C670.921 46.9938 670.367 46.5275 669.979 45.8835C669.595 45.2396 669.403 44.3826 669.403 43.3125V38.4545ZM678.267 38.4545H680.028V53H678.267V38.4545ZM686.541 53.2557C685.85 53.2557 685.223 53.1255 684.659 52.8651C684.096 52.5999 683.648 52.2188 683.317 51.7216C682.985 51.2197 682.82 50.6136 682.82 49.9034C682.82 49.2784 682.943 48.7718 683.189 48.3835C683.435 47.9905 683.764 47.6828 684.176 47.4602C684.588 47.2377 685.043 47.072 685.54 46.9631C686.042 46.8494 686.546 46.7595 687.053 46.6932C687.715 46.608 688.253 46.544 688.665 46.5014C689.081 46.4541 689.384 46.3759 689.574 46.267C689.768 46.1581 689.865 45.9687 689.865 45.6989V45.642C689.865 44.9413 689.673 44.3968 689.29 44.0085C688.911 43.6203 688.336 43.4261 687.564 43.4261C686.764 43.4261 686.136 43.6013 685.682 43.9517C685.227 44.3021 684.908 44.6761 684.723 45.0739L683.132 44.5057C683.416 43.8428 683.795 43.3267 684.268 42.9574C684.747 42.5833 685.268 42.3229 685.831 42.1761C686.399 42.0246 686.958 41.9489 687.507 41.9489C687.857 41.9489 688.26 41.9915 688.714 42.0767C689.174 42.1572 689.616 42.3253 690.043 42.581C690.473 42.8366 690.831 43.2225 691.115 43.7386C691.399 44.2547 691.541 44.946 691.541 45.8125V53H689.865V51.5227H689.78C689.666 51.7595 689.477 52.0128 689.212 52.2827C688.946 52.5526 688.594 52.7822 688.153 52.9716C687.713 53.161 687.176 53.2557 686.541 53.2557ZM686.797 51.75C687.46 51.75 688.018 51.6198 688.473 51.3594C688.932 51.099 689.278 50.7628 689.51 50.3509C689.747 49.9389 689.865 49.5057 689.865 49.0511V47.517C689.794 47.6023 689.638 47.6804 689.396 47.7514C689.16 47.8177 688.885 47.8769 688.572 47.929C688.265 47.9763 687.964 48.0189 687.67 48.0568C687.382 48.09 687.147 48.1184 686.967 48.142C686.532 48.1989 686.125 48.2912 685.746 48.419C685.372 48.5421 685.069 48.7292 684.837 48.9801C684.609 49.2263 684.496 49.5625 684.496 49.9886C684.496 50.571 684.711 51.0114 685.142 51.3097C685.578 51.6032 686.129 51.75 686.797 51.75ZM696.277 50.5284L701.532 42.0909H703.464V53H701.788V44.5625L696.561 53H694.6V42.0909H696.277V50.5284ZM700.424 38.4545H701.987C701.987 39.2216 701.722 39.849 701.191 40.3366C700.661 40.8243 699.941 41.0682 699.032 41.0682C698.137 41.0682 697.425 40.8243 696.895 40.3366C696.369 39.849 696.106 39.2216 696.106 38.4545H697.669C697.669 38.8239 697.77 39.1482 697.974 39.4276C698.182 39.7069 698.535 39.8466 699.032 39.8466C699.529 39.8466 699.885 39.7069 700.098 39.4276C700.315 39.1482 700.424 38.8239 700.424 38.4545ZM713.835 46.7784V48.3409H707.812V46.7784H713.835ZM708.21 42.0909V53H706.534V42.0909H708.21ZM715.114 42.0909V53H713.438V42.0909H715.114ZM719.851 50.5284L725.107 42.0909H727.038V53H725.362V44.5625L720.135 53H718.175V42.0909H719.851V50.5284ZM730.108 53V42.0909H731.784V46.8352H732.892L736.813 42.0909H738.972L734.569 47.3466L739.029 53H736.87L733.29 48.3977H731.784V53H730.108ZM742.527 50.5284L747.782 42.0909H749.714V53H748.038V44.5625L742.811 53H740.85V42.0909H742.527V50.5284Z" fill="white"/>
<path d="M802.466 40.017V38.4545H813.375V40.017H808.801V53H807.04V40.017H802.466ZM815.696 57.0909C815.412 57.0909 815.158 57.0672 814.936 57.0199C814.713 56.9773 814.559 56.9347 814.474 56.892L814.9 55.4148C815.307 55.5189 815.667 55.5568 815.98 55.5284C816.292 55.5 816.569 55.3603 816.811 55.1094C817.057 54.8632 817.282 54.4631 817.485 53.9091L817.798 53.0568L813.764 42.0909H815.582L818.593 50.7841H818.707L821.718 42.0909H823.537L818.906 54.5909C818.698 55.1544 818.44 55.6207 818.132 55.9901C817.824 56.3641 817.467 56.6411 817.059 56.821C816.657 57.0009 816.202 57.0909 815.696 57.0909ZM825.749 57.0909V42.0909H827.368V43.8239H827.567C827.69 43.6345 827.861 43.393 828.078 43.0994C828.301 42.8011 828.618 42.536 829.03 42.304C829.447 42.0672 830.01 41.9489 830.721 41.9489C831.639 41.9489 832.449 42.1785 833.15 42.6378C833.85 43.0971 834.397 43.7481 834.79 44.5909C835.183 45.4337 835.38 46.428 835.38 47.5739C835.38 48.7292 835.183 49.7306 834.79 50.5781C834.397 51.4209 833.853 52.0743 833.157 52.5384C832.461 52.9976 831.658 53.2273 830.749 53.2273C830.048 53.2273 829.487 53.1113 829.066 52.8793C828.644 52.6425 828.32 52.375 828.093 52.0767C827.865 51.7737 827.69 51.5227 827.567 51.3239H827.425V57.0909H825.749ZM827.397 47.5455C827.397 48.3693 827.517 49.0961 827.759 49.7259C828 50.3509 828.353 50.8409 828.817 51.196C829.281 51.5464 829.849 51.7216 830.522 51.7216C831.222 51.7216 831.807 51.5369 832.276 51.1676C832.749 50.7936 833.105 50.2917 833.341 49.6619C833.583 49.0275 833.703 48.322 833.703 47.5455C833.703 46.7784 833.585 46.0871 833.348 45.4716C833.116 44.8513 832.764 44.3613 832.29 44.0014C831.821 43.6368 831.232 43.4545 830.522 43.4545C829.84 43.4545 829.267 43.6274 828.803 43.973C828.339 44.3139 827.989 44.7921 827.752 45.4077C827.515 46.0185 827.397 46.7311 827.397 47.5455ZM837.936 53V42.0909H839.613V46.8352H840.721L844.641 42.0909H846.8L842.397 47.3466L846.857 53H844.698L841.118 48.3977H839.613V53H837.936ZM850.355 50.5284L855.61 42.0909H857.542V53H855.866V44.5625L850.639 53H848.679V42.0909H850.355V50.5284Z" fill="white"/>
<path d="M922.142 38.4545V53H920.381V40.017H913.051V53H911.29V38.4545H922.142ZM925.468 57.0909V42.0909H927.087V43.8239H927.286C927.409 43.6345 927.579 43.393 927.797 43.0994C928.02 42.8011 928.337 42.536 928.749 42.304C929.166 42.0672 929.729 41.9489 930.439 41.9489C931.358 41.9489 932.167 42.1785 932.868 42.6378C933.569 43.0971 934.116 43.7481 934.509 44.5909C934.902 45.4337 935.098 46.428 935.098 47.5739C935.098 48.7292 934.902 49.7306 934.509 50.5781C934.116 51.4209 933.571 52.0743 932.875 52.5384C932.179 52.9976 931.377 53.2273 930.468 53.2273C929.767 53.2273 929.206 53.1113 928.784 52.8793C928.363 52.6425 928.039 52.375 927.811 52.0767C927.584 51.7737 927.409 51.5227 927.286 51.3239H927.144V57.0909H925.468ZM927.115 47.5455C927.115 48.3693 927.236 49.0961 927.478 49.7259C927.719 50.3509 928.072 50.8409 928.536 51.196C929 51.5464 929.568 51.7216 930.24 51.7216C930.941 51.7216 931.526 51.5369 931.995 51.1676C932.468 50.7936 932.823 50.2917 933.06 49.6619C933.301 49.0275 933.422 48.322 933.422 47.5455C933.422 46.7784 933.304 46.0871 933.067 45.4716C932.835 44.8513 932.482 44.3613 932.009 44.0014C931.54 43.6368 930.951 43.4545 930.24 43.4545C929.559 43.4545 928.986 43.6274 928.522 43.973C928.058 44.3139 927.707 44.7921 927.471 45.4077C927.234 46.0185 927.115 46.7311 927.115 47.5455ZM942.087 53.2273C941.102 53.2273 940.238 52.9929 939.495 52.5241C938.756 52.0554 938.178 51.3996 937.762 50.5568C937.35 49.714 937.144 48.7292 937.144 47.6023C937.144 46.4659 937.35 45.474 937.762 44.6264C938.178 43.7789 938.756 43.1207 939.495 42.652C940.238 42.1832 941.102 41.9489 942.087 41.9489C943.072 41.9489 943.934 42.1832 944.672 42.652C945.416 43.1207 945.993 43.7789 946.405 44.6264C946.822 45.474 947.03 46.4659 947.03 47.6023C947.03 48.7292 946.822 49.714 946.405 50.5568C945.993 51.3996 945.416 52.0554 944.672 52.5241C943.934 52.9929 943.072 53.2273 942.087 53.2273ZM942.087 51.7216C942.835 51.7216 943.451 51.5298 943.934 51.1463C944.417 50.7628 944.774 50.2585 945.006 49.6335C945.238 49.0085 945.354 48.3314 945.354 47.6023C945.354 46.8731 945.238 46.1937 945.006 45.5639C944.774 44.9342 944.417 44.4252 943.934 44.0369C943.451 43.6487 942.835 43.4545 942.087 43.4545C941.339 43.4545 940.723 43.6487 940.24 44.0369C939.757 44.4252 939.4 44.9342 939.168 45.5639C938.936 46.1937 938.82 46.8731 938.82 47.6023C938.82 48.3314 938.936 49.0085 939.168 49.6335C939.4 50.2585 939.757 50.7628 940.24 51.1463C940.723 51.5298 941.339 51.7216 942.087 51.7216ZM957.998 42.0909V53H956.322V42.0909H957.998ZM957.344 47.2898V48.8523C956.966 48.9943 956.589 49.1198 956.215 49.2287C955.841 49.3329 955.448 49.4157 955.036 49.4773C954.624 49.5341 954.172 49.5625 953.68 49.5625C952.444 49.5625 951.452 49.2287 950.704 48.5611C949.96 47.8935 949.589 46.892 949.589 45.5568V42.0625H951.265V45.5568C951.265 46.1155 951.371 46.5748 951.585 46.9347C951.798 47.2945 952.086 47.562 952.451 47.7372C952.816 47.9124 953.225 48 953.68 48C954.39 48 955.031 47.9361 955.604 47.8082C956.182 47.6757 956.762 47.5028 957.344 47.2898ZM965.647 53.2273C964.596 53.2273 963.689 52.9953 962.927 52.5312C962.169 52.0625 961.585 51.4091 961.173 50.571C960.765 49.7282 960.562 48.7481 960.562 47.6307C960.562 46.5133 960.765 45.5284 961.173 44.6761C961.585 43.8191 962.157 43.1515 962.891 42.6733C963.63 42.1903 964.492 41.9489 965.477 41.9489C966.045 41.9489 966.606 42.0436 967.16 42.233C967.714 42.4223 968.218 42.7301 968.673 43.1562C969.127 43.5777 969.489 44.1364 969.759 44.8324C970.029 45.5284 970.164 46.3854 970.164 47.4034V48.1136H961.755V46.6648H968.46C968.46 46.0492 968.336 45.5 968.09 45.017C967.849 44.5341 967.503 44.1529 967.053 43.8736C966.608 43.5942 966.083 43.4545 965.477 43.4545C964.809 43.4545 964.231 43.6203 963.744 43.9517C963.261 44.2784 962.889 44.7045 962.629 45.2301C962.368 45.7557 962.238 46.3191 962.238 46.9205V47.8864C962.238 48.7102 962.38 49.4086 962.664 49.9815C962.953 50.5497 963.353 50.983 963.864 51.2812C964.376 51.5748 964.97 51.7216 965.647 51.7216C966.087 51.7216 966.485 51.66 966.84 51.5369C967.2 51.4091 967.51 51.2197 967.771 50.9688C968.031 50.7131 968.232 50.3958 968.374 50.017L969.994 50.4716C969.823 51.0208 969.537 51.5038 969.134 51.9205C968.732 52.3324 968.235 52.6544 967.643 52.8864C967.051 53.1136 966.386 53.2273 965.647 53.2273ZM977.288 53.2273C976.237 53.2273 975.33 52.9953 974.567 52.5312C973.81 52.0625 973.225 51.4091 972.813 50.571C972.406 49.7282 972.202 48.7481 972.202 47.6307C972.202 46.5133 972.406 45.5284 972.813 44.6761C973.225 43.8191 973.798 43.1515 974.532 42.6733C975.271 42.1903 976.132 41.9489 977.117 41.9489C977.685 41.9489 978.246 42.0436 978.8 42.233C979.354 42.4223 979.859 42.7301 980.313 43.1562C980.768 43.5777 981.13 44.1364 981.4 44.8324C981.67 45.5284 981.805 46.3854 981.805 47.4034V48.1136H973.396V46.6648H980.1C980.1 46.0492 979.977 45.5 979.731 45.017C979.489 44.5341 979.144 44.1529 978.694 43.8736C978.249 43.5942 977.723 43.4545 977.117 43.4545C976.45 43.4545 975.872 43.6203 975.384 43.9517C974.901 44.2784 974.53 44.7045 974.269 45.2301C974.009 45.7557 973.879 46.3191 973.879 46.9205V47.8864C973.879 48.7102 974.021 49.4086 974.305 49.9815C974.594 50.5497 974.994 50.983 975.505 51.2812C976.016 51.5748 976.611 51.7216 977.288 51.7216C977.728 51.7216 978.126 51.66 978.481 51.5369C978.841 51.4091 979.151 51.2197 979.411 50.9688C979.672 50.7131 979.873 50.3958 980.015 50.017L981.634 50.4716C981.464 51.0208 981.177 51.5038 980.775 51.9205C980.372 52.3324 979.875 52.6544 979.283 52.8864C978.692 53.1136 978.026 53.2273 977.288 53.2273Z" fill="white"/>
<path d="M1341.29 41.9533C1340.51 41.09 1339.33 40.5883 1337.69 40.4133V39.5266C1337.69 37.9283 1337.02 36.3883 1335.83 35.315C1334.63 34.2183 1333.06 33.705 1331.44 33.8566C1328.65 34.125 1326.31 36.82 1326.31 39.7366V40.4133C1324.67 40.5883 1323.5 41.09 1322.71 41.9533C1321.58 43.2133 1321.62 44.8933 1321.75 46.06L1322.56 52.5583C1322.81 54.8333 1323.73 57.1666 1328.75 57.1666H1335.26C1340.27 57.1666 1341.19 54.8333 1341.44 52.57L1342.26 46.0483C1342.38 44.8933 1342.41 43.2133 1341.29 41.9533ZM1331.6 35.4783C1332.77 35.3733 1333.88 35.735 1334.74 36.5166C1335.59 37.2866 1336.07 38.3833 1336.07 39.5266V40.3433H1327.93V39.7366C1327.93 37.66 1329.64 35.665 1331.6 35.4783ZM1327.82 46.8416H1327.81C1327.17 46.8416 1326.65 46.3166 1326.65 45.675C1326.65 45.0333 1327.17 44.5083 1327.81 44.5083C1328.47 44.5083 1328.99 45.0333 1328.99 45.675C1328.99 46.3166 1328.47 46.8416 1327.82 46.8416ZM1335.99 46.8416H1335.98C1335.34 46.8416 1334.81 46.3166 1334.81 45.675C1334.81 45.0333 1335.34 44.5083 1335.98 44.5083C1336.63 44.5083 1337.16 45.0333 1337.16 45.675C1337.16 46.3166 1336.63 46.8416 1335.99 46.8416Z" fill="white"/>
<circle cx="1336" cy="45.5" r="2" fill="white"/>
<circle cx="1328" cy="45.5" r="2" fill="white"/>
<path d="M1332.06 53.6193C1331.7 53.6136 1331.34 53.5455 1330.98 53.4148C1330.63 53.2841 1330.3 53.0639 1330 52.7543C1329.71 52.4418 1329.47 52.0199 1329.29 51.4886C1329.11 50.9545 1329.02 50.2841 1329.02 49.4773C1329.02 48.7045 1329.1 48.0199 1329.24 47.4233C1329.39 46.8239 1329.6 46.3196 1329.87 45.9105C1330.15 45.4986 1330.48 45.1861 1330.87 44.973C1331.26 44.7599 1331.7 44.6534 1332.19 44.6534C1332.68 44.6534 1333.12 44.7514 1333.5 44.9474C1333.88 45.1406 1334.19 45.4105 1334.43 45.7571C1334.68 46.1037 1334.83 46.5028 1334.9 46.9545H1333.86C1333.77 46.5625 1333.58 46.2372 1333.3 45.9787C1333.02 45.7202 1332.65 45.5909 1332.19 45.5909C1331.52 45.5909 1330.98 45.8849 1330.6 46.473C1330.21 47.0611 1330.01 47.8864 1330.01 48.9489H1330.08C1330.24 48.7074 1330.43 48.5014 1330.65 48.331C1330.87 48.1577 1331.11 48.0241 1331.38 47.9304C1331.65 47.8366 1331.93 47.7898 1332.23 47.7898C1332.73 47.7898 1333.18 47.9148 1333.6 48.1648C1334.01 48.4119 1334.35 48.7543 1334.6 49.1918C1334.85 49.6264 1334.97 50.125 1334.97 50.6875C1334.97 51.2273 1334.85 51.7216 1334.61 52.1705C1334.37 52.6165 1334.03 52.9716 1333.59 53.2358C1333.16 53.4972 1332.65 53.625 1332.06 53.6193ZM1332.06 52.6818C1332.41 52.6818 1332.74 52.5923 1333.02 52.4134C1333.31 52.2344 1333.53 51.9943 1333.7 51.6932C1333.87 51.392 1333.95 51.0568 1333.95 50.6875C1333.95 50.3267 1333.87 49.9986 1333.71 49.7031C1333.55 49.4048 1333.33 49.1676 1333.05 48.9915C1332.77 48.8153 1332.45 48.7273 1332.09 48.7273C1331.82 48.7273 1331.57 48.7812 1331.34 48.8892C1331.1 48.9943 1330.9 49.1392 1330.72 49.3239C1330.55 49.5085 1330.41 49.7202 1330.31 49.9588C1330.21 50.1946 1330.16 50.4432 1330.16 50.7045C1330.16 51.0511 1330.25 51.375 1330.41 51.6761C1330.57 51.9773 1330.8 52.2202 1331.08 52.4048C1331.37 52.5895 1331.69 52.6818 1332.06 52.6818Z" fill="#64099B"/>
</g>
<defs>
<filter id="filter0_b_3_290" x="-60" y="-60" width="1512" height="211" filterUnits="userSpaceOnUse" color-interpolation-filters="sRGB">
<feFlood flood-opacity="0" result="BackgroundImageFix"/>
<feGaussianBlur in="BackgroundImageFix" stdDeviation="30"/>
<feComposite in2="SourceAlpha" operator="in" result="effect1_backgroundBlur_3_290"/>
<feBlend mode="normal" in="SourceGraphic" in2="effect1_backgroundBlur_3_290" result="shape"/>
</filter>
<clipPath id="clip0_3_290">
<rect width="35.6691" height="36.0769" fill="white" transform="translate(111.515 12)"/>
</clipPath>
</defs>
</svg>
